<?xml version="1.0" encoding="UTF-8"?>
<svg id="Layer_1" data-name="Layer 1" xmlns="http://www.w3.org/2000/svg" viewBox="0 0 30 30">
  <path d="M23.25,18.37c2.16,1.82,3.48,5.43.47,7.04-5,2.03-11.15-2.97-13.86-6.87.76-1.19,1.61-2.29,2.54-3.35,2.03,2.03,4.2,3.99,6.78,5.34,3.14,1.4,5.72.51,3.01-2.97.42.21.72.51,1.06.81Z" style="fill: #a0c64c;"/>
  <path d="M15.66,17.52c1.61-1.7,3.14-3.35,4.45-5.21,2.03-2.93,1.61-7.16-2.46-3.9,1.61-2.8,6.53-5.21,8.14-1.1,1.44,4.24-3.31,10.34-6.49,12.97-1.06-.72-2.76-1.82-3.65-2.76Z" style="fill: #a0c64c;"/>
  <path d="M6.8,11.63c-2.16-1.82-3.52-5.47-.51-7.04,5-2.03,11.15,2.97,13.86,6.87-.76,1.19-1.61,2.29-2.54,3.35-2.03-2.03-4.2-3.99-6.78-5.34-3.14-1.4-5.72-.51-3.01,2.97-.42-.21-.72-.51-1.02-.81Z" style="fill: #394987;"/>
  <path d="M14.39,12.44c-1.61,1.7-3.14,3.35-4.45,5.21-2.03,2.93-1.61,7.16,2.46,3.9-1.65,2.76-6.57,5.21-8.18,1.1-1.44-4.24,3.31-10.34,6.49-12.97,1.06.76,2.76,1.87,3.69,2.76Z" style="fill: #394987;"/>
</svg>