<svg width="31" height="35" viewBox="0 0 31 35" fill="none" xmlns="http://www.w3.org/2000/svg">
<path d="M4.84375 8.55595H24.2188C24.4757 8.55595 24.7221 8.44327 24.9038 8.2427C25.0854 8.04213 25.1875 7.7701 25.1875 7.48645C25.1875 7.20281 25.0854 6.93077 24.9038 6.7302C24.7221 6.52963 24.4757 6.41695 24.2188 6.41695H7.75C7.49307 6.41695 7.24667 6.30427 7.06499 6.1037C6.88331 5.90313 6.78125 5.6311 6.78125 5.34745C6.78125 5.06381 6.88331 4.79177 7.06499 4.5912C7.24667 4.39063 7.49307 4.27795 7.75 4.27795H24.2188C24.9895 4.27795 25.7288 4.61599 26.2738 5.2177C26.8188 5.81941 27.125 6.63551 27.125 7.48645V24.5985C27.125 25.4494 26.8188 26.2655 26.2738 26.8672C25.7288 27.4689 24.9895 27.807 24.2188 27.807H4.84375C4.32989 27.807 3.83708 27.5816 3.47373 27.1805C3.11038 26.7793 2.90625 26.2353 2.90625 25.668V10.695C2.90625 10.1277 3.11038 9.58359 3.47373 9.18245C3.83708 8.78131 4.32989 8.55595 4.84375 8.55595ZM4.84375 25.668H24.2188C24.4757 25.668 24.7221 25.5553 24.9038 25.3547C25.0854 25.1541 25.1875 24.8821 25.1875 24.5985V10.5118C24.8764 10.6335 24.5488 10.6955 24.2188 10.695H4.84375V25.668ZM10.6562 17.6467C10.6562 17.3294 10.571 17.0192 10.4114 16.7554C10.2517 16.4916 10.0247 16.286 9.75921 16.1646C9.49369 16.0431 9.20151 16.0114 8.91964 16.0733C8.63776 16.1352 8.37883 16.288 8.17561 16.5123C7.97239 16.7367 7.83399 17.0225 7.77792 17.3337C7.72185 17.6449 7.75063 17.9675 7.86061 18.2606C7.9706 18.5538 8.15685 18.8043 8.39581 18.9806C8.63478 19.1569 8.91572 19.251 9.20312 19.251C9.58852 19.251 9.95812 19.0819 10.2306 18.7811C10.5032 18.4802 10.6562 18.0722 10.6562 17.6467Z" fill="white"/>
</svg>
