<svg width="31" height="31" viewBox="0 0 31 31" fill="none" xmlns="http://www.w3.org/2000/svg">
<path d="M8.71875 10.8464V10.1719C8.71875 7.13484 13.2997 4.84375 19.375 4.84375C25.4503 4.84375 30.0312 7.13484 30.0312 10.1719V15.0156C30.0312 17.5453 26.8525 19.5554 22.2812 20.1573V20.8281C22.2812 23.8652 17.7003 26.1562 11.625 26.1562C5.54973 26.1562 0.96875 23.8652 0.96875 20.8281V15.9844C0.96875 13.4777 4.04695 11.4652 8.71875 10.8464ZM2.90625 15.9844C2.90625 17.5852 6.63473 19.375 11.625 19.375C12.0767 19.375 12.5247 19.3593 12.9667 19.3302C10.3547 18.3784 8.71875 16.832 8.71875 15.0156V12.8045C5.10168 13.3433 2.90625 14.8061 2.90625 15.9844ZM22.2812 18.1943V15.3135C21.3176 15.4391 20.3468 15.5014 19.375 15.5C18.4032 15.5014 17.4324 15.4391 16.4688 15.3135V18.1943C17.431 18.3365 18.4024 18.4073 19.375 18.4062C20.3476 18.4073 21.319 18.3365 22.2812 18.1943ZM10.6562 13.3118V15.0156C10.6562 16.0316 12.159 17.1227 14.5312 17.785V14.9551C12.9679 14.5761 11.6444 14.0118 10.6562 13.3118ZM19.375 6.78125C14.3847 6.78125 10.6562 8.57102 10.6562 10.1719C10.6562 11.7727 14.3847 13.5625 19.375 13.5625C24.3653 13.5625 28.0938 11.7727 28.0938 10.1719C28.0938 8.57102 24.3653 6.78125 19.375 6.78125ZM28.0938 15.0156V13.3118C27.1056 14.0118 25.7821 14.5761 24.2188 14.9551V17.785C26.591 17.1227 28.0938 16.0316 28.0938 15.0156ZM20.3438 20.8281V20.3232C20.0253 20.3353 19.7032 20.3438 19.375 20.3438C18.9052 20.3438 18.4462 20.328 17.9957 20.3014C17.4953 20.4805 16.9856 20.6325 16.4688 20.7567V23.5975C18.841 22.9352 20.3438 21.8441 20.3438 20.8281ZM14.5312 24.0068V21.1187C13.5679 21.2482 12.597 21.313 11.625 21.3125C10.6532 21.3139 9.68239 21.2516 8.71875 21.126V24.0068C10.6459 24.2894 12.6041 24.2894 14.5312 24.0068ZM6.78125 23.5975V20.7676C5.21793 20.3886 3.89437 19.8243 2.90625 19.1243V20.8281C2.90625 21.8441 4.40902 22.9352 6.78125 23.5975Z" fill="white"/>
</svg>
