<svg width="31" height="31" viewBox="0 0 31 31" fill="none" xmlns="http://www.w3.org/2000/svg">
<path d="M18.4062 4.84375H24.2188C24.7326 4.84375 25.2254 5.04788 25.5888 5.41123C25.9521 5.77458 26.1562 6.26739 26.1562 6.78125V12.5938C26.1562 13.1076 25.9521 13.6004 25.5888 13.9638C25.2254 14.3271 24.7326 14.5312 24.2188 14.5312H18.4062C17.8924 14.5312 17.3996 14.3271 17.0362 13.9638C16.6729 13.6004 16.4688 13.1076 16.4688 12.5938V6.78125C16.4688 6.26739 16.6729 5.77458 17.0362 5.41123C17.3996 5.04788 17.8924 4.84375 18.4062 4.84375ZM18.4062 12.5938H24.2188V6.78125H18.4062V12.5938ZM6.78125 4.84375H12.5938C13.1076 4.84375 13.6004 5.04788 13.9638 5.41123C14.3271 5.77458 14.5312 6.26739 14.5312 6.78125V12.5938C14.5312 13.1076 14.3271 13.6004 13.9638 13.9638C13.6004 14.3271 13.1076 14.5312 12.5938 14.5312H6.78125C6.26739 14.5312 5.77458 14.3271 5.41123 13.9638C5.04788 13.6004 4.84375 13.1076 4.84375 12.5938V6.78125C4.84375 6.26739 5.04788 5.77458 5.41123 5.41123C5.77458 5.04788 6.26739 4.84375 6.78125 4.84375ZM6.78125 12.5938H12.5938V6.78125H6.78125V12.5938ZM18.4062 16.4688H24.2188C24.7326 16.4688 25.2254 16.6729 25.5888 17.0362C25.9521 17.3996 26.1562 17.8924 26.1562 18.4062V24.2188C26.1562 24.7326 25.9521 25.2254 25.5888 25.5888C25.2254 25.9521 24.7326 26.1562 24.2188 26.1562H18.4062C17.8924 26.1562 17.3996 25.9521 17.0362 25.5888C16.6729 25.2254 16.4688 24.7326 16.4688 24.2188V18.4062C16.4688 17.8924 16.6729 17.3996 17.0362 17.0362C17.3996 16.6729 17.8924 16.4688 18.4062 16.4688ZM18.4062 24.2188H24.2188V18.4062H18.4062V24.2188ZM6.78125 16.4688H12.5938C13.1076 16.4688 13.6004 16.6729 13.9638 17.0362C14.3271 17.3996 14.5312 17.8924 14.5312 18.4062V24.2188C14.5312 24.7326 14.3271 25.2254 13.9638 25.5888C13.6004 25.9521 13.1076 26.1562 12.5938 26.1562H6.78125C6.26739 26.1562 5.77458 25.9521 5.41123 25.5888C5.04788 25.2254 4.84375 24.7326 4.84375 24.2188V18.4062C4.84375 17.8924 5.04788 17.3996 5.41123 17.0362C5.77458 16.6729 6.26739 16.4688 6.78125 16.4688ZM6.78125 24.2188H12.5938V18.4062H6.78125V24.2188Z" fill="white"/>
</svg>
