<svg width="31" height="31" viewBox="0 0 31 31" fill="none" xmlns="http://www.w3.org/2000/svg">
<path d="M25.1875 3.875H22.2812V2.90625C22.2812 2.64932 22.1792 2.40292 21.9975 2.22124C21.8158 2.03956 21.5694 1.9375 21.3125 1.9375C21.0556 1.9375 20.8092 2.03956 20.6275 2.22124C20.4458 2.40292 20.3438 2.64932 20.3438 2.90625V3.875H10.6562V2.90625C10.6562 2.64932 10.5542 2.40292 10.3725 2.22124C10.1908 2.03956 9.94443 1.9375 9.6875 1.9375C9.43057 1.9375 9.18417 2.03956 9.00249 2.22124C8.82081 2.40292 8.71875 2.64932 8.71875 2.90625V3.875H5.8125C5.29864 3.875 4.80583 4.07913 4.44248 4.44248C4.07913 4.80583 3.875 5.29864 3.875 5.8125V25.1875C3.875 25.7014 4.07913 26.1942 4.44248 26.5575C4.80583 26.9209 5.29864 27.125 5.8125 27.125H25.1875C25.7014 27.125 26.1942 26.9209 26.5575 26.5575C26.9209 26.1942 27.125 25.7014 27.125 25.1875V5.8125C27.125 5.29864 26.9209 4.80583 26.5575 4.44248C26.1942 4.07913 25.7014 3.875 25.1875 3.875ZM8.71875 5.8125V6.78125C8.71875 7.03818 8.82081 7.28458 9.00249 7.46626C9.18417 7.64794 9.43057 7.75 9.6875 7.75C9.94443 7.75 10.1908 7.64794 10.3725 7.46626C10.5542 7.28458 10.6562 7.03818 10.6562 6.78125V5.8125H20.3438V6.78125C20.3438 7.03818 20.4458 7.28458 20.6275 7.46626C20.8092 7.64794 21.0556 7.75 21.3125 7.75C21.5694 7.75 21.8158 7.64794 21.9975 7.46626C22.1792 7.28458 22.2812 7.03818 22.2812 6.78125V5.8125H25.1875V9.6875H5.8125V5.8125H8.71875ZM25.1875 25.1875H5.8125V11.625H25.1875V25.1875ZM13.5625 14.5312V22.2812C13.5625 22.5382 13.4604 22.7846 13.2788 22.9663C13.0971 23.1479 12.8507 23.25 12.5938 23.25C12.3368 23.25 12.0904 23.1479 11.9087 22.9663C11.7271 22.7846 11.625 22.5382 11.625 22.2812V16.0982L11.0898 16.367C10.8598 16.482 10.5936 16.5009 10.3497 16.4196C10.1058 16.3383 9.90419 16.1635 9.78922 15.9335C9.67424 15.7036 9.65532 15.4374 9.73662 15.1935C9.81792 14.9496 9.99278 14.7479 10.2227 14.633L12.1602 13.6642C12.308 13.5903 12.4722 13.5554 12.6372 13.5628C12.8023 13.5702 12.9627 13.6197 13.1032 13.7066C13.2437 13.7935 13.3597 13.9149 13.4401 14.0592C13.5205 14.2035 13.5626 14.366 13.5625 14.5312ZM20.7264 18.2186L18.4062 21.3125H20.3438C20.6007 21.3125 20.8471 21.4146 21.0288 21.5962C21.2104 21.7779 21.3125 22.0243 21.3125 22.2812C21.3125 22.5382 21.2104 22.7846 21.0288 22.9663C20.8471 23.1479 20.6007 23.25 20.3438 23.25H16.4688C16.2888 23.25 16.1125 23.1999 15.9594 23.1053C15.8064 23.0107 15.6827 22.8754 15.6023 22.7145C15.5218 22.5536 15.4878 22.3734 15.5039 22.1943C15.5201 22.0151 15.5858 21.8439 15.6938 21.7L19.1788 17.0536C19.2581 16.9481 19.315 16.8275 19.3459 16.6992C19.3769 16.5709 19.3814 16.4376 19.359 16.3075C19.3366 16.1775 19.2879 16.0533 19.2158 15.9428C19.1437 15.8322 19.0498 15.7375 18.9398 15.6645C18.8298 15.5916 18.7061 15.5419 18.5762 15.5184C18.4463 15.495 18.313 15.4984 18.1844 15.5283C18.0559 15.5583 17.9348 15.6142 17.8287 15.6926C17.7225 15.771 17.6335 15.8703 17.5671 15.9844C17.5053 16.0981 17.4215 16.1982 17.3204 16.279C17.2193 16.3597 17.1031 16.4194 16.9786 16.4545C16.8541 16.4896 16.7238 16.4994 16.5954 16.4833C16.4671 16.4673 16.3432 16.4257 16.2312 16.361C16.1192 16.2962 16.0212 16.2098 15.9432 16.1066C15.8651 16.0034 15.8085 15.8857 15.7767 15.7603C15.7449 15.6349 15.7385 15.5044 15.758 15.3765C15.7774 15.2486 15.8223 15.1259 15.8899 15.0156C16.2099 14.4618 16.7037 14.0291 17.2946 13.7845C17.8856 13.5398 18.5407 13.497 19.1585 13.6625C19.7763 13.8281 20.3222 14.1928 20.7117 14.7001C21.1011 15.2075 21.3123 15.8292 21.3125 16.4688C21.3146 17.1005 21.1086 17.7155 20.7264 18.2186Z" fill="white"/>
</svg>
