<svg width="121" height="41" viewBox="0 0 121 41" fill="none" xmlns="http://www.w3.org/2000/svg">
<path d="M26.6611 21.0641C29.4879 23.4475 31.2062 28.1589 27.2708 30.2652C20.7303 32.9258 12.6932 26.3852 9.14575 21.2858C10.1435 19.7338 11.252 18.2927 12.4715 16.907C15.132 19.5675 17.9589 22.1172 21.34 23.891C25.4417 25.7201 28.8228 24.5561 25.2754 20.011C25.8297 20.2881 26.2177 20.6761 26.6611 21.0641Z" fill="#9FC74C"/>
<path d="M16.7395 19.9554C18.8458 17.7383 20.8412 15.5766 22.5595 13.1377C25.22 9.31319 24.6658 3.77036 19.3446 8.03834C21.4509 4.38007 27.8806 1.22066 29.9869 6.5972C31.8714 12.14 25.6635 20.1217 21.5063 23.5583C20.1206 22.616 17.9035 21.1748 16.7395 19.9554Z" fill="#9FC74C"/>
<path d="M5.15478 12.2509C2.32793 9.8675 0.554228 5.10067 4.48964 3.04982C11.0302 0.389259 19.0673 6.9298 22.6147 12.0292C21.617 13.5812 20.5084 15.0223 19.289 16.408C16.6284 13.7475 13.8016 11.1978 10.4205 9.42407C6.31877 7.59494 2.93764 8.75893 6.48506 13.3041C5.93077 13.0269 5.54278 12.6389 5.15478 12.2509Z" fill="#344988"/>
<path d="M15.0765 13.304C12.9703 15.5211 10.9748 17.6828 9.25656 20.1217C6.59601 23.9462 7.15029 29.4891 12.4714 25.2211C10.3097 28.8239 3.88002 32.0388 1.77374 26.6622C-0.11082 21.1194 6.09715 13.1377 10.2543 9.70117C11.64 10.6989 13.8571 12.14 15.0765 13.304Z" fill="#344988"/>
<path d="M48.4441 18.6257C51.16 17.1847 56.5361 16.9626 58.033 19.6228C58.9752 21.0085 58.4214 26.2739 58.5876 27.8816C58.5876 28.713 58.8093 29.4896 59.2527 30.321C57.9224 30.7644 55.6504 30.9298 55.2625 29.2117C54.2093 30.2094 52.8786 30.7087 51.2712 30.7087C47.2804 30.875 45.2849 26.4403 48.2781 23.946C49.9409 22.6713 52.5461 22.3943 54.9294 22.3943C55.4282 18.9024 50.3291 20.1776 48.5554 21.3416C47.9458 20.5102 47.1698 19.2355 48.4441 18.6257ZM72.6111 20.1775C73.6642 17.4062 78.3196 16.907 81.4236 18.2371C82.92 18.6805 82.4775 20.2325 81.6462 21.2302C80.4268 20.3988 76.6576 18.9577 76.1033 21.0085C76.2697 23.0592 81.6456 22.1171 82.4773 25.0544C84.4727 30.3756 75.9917 32.0944 72.7214 29.5447C72.001 28.9349 72.7773 27.7149 73.2761 26.8835C74.4401 27.9921 79.0955 29.3226 78.9851 26.6072C78.8743 25.4432 76.4354 25.2767 75.5486 24.9441C73.2207 24.5007 71.7799 22.3391 72.6111 20.1775ZM109.138 17.738C111.965 17.2393 115.401 17.5723 116.344 19.8445C117.397 22.505 116.011 27.4942 117.286 30.0994L117.342 30.321C115.845 30.709 113.794 30.8749 113.406 29.157C112.353 30.1545 111.023 30.653 109.36 30.6531C106.256 30.7085 104.316 28.159 105.313 25.4431C106.145 23.0043 109.915 22.3386 113.074 22.3386C113.517 18.8471 108.473 20.1219 106.699 21.2859C104.704 18.7363 106.977 18.2369 109.138 17.738ZM66.9021 17.9597C68.177 17.7381 70.5605 17.7941 70.616 19.4568C70.6707 19.4969 70.6707 30.4871 70.6707 30.4871C69.396 30.6533 67.8996 30.6531 67.2898 29.822C66.5692 29.7112 67.013 18.514 66.9021 17.9597ZM60.8601 11.863C62.2457 11.7522 64.4628 11.6412 64.574 13.3591V30.4871C63.2438 30.6533 61.8029 30.653 61.1931 29.7664C60.3617 29.8218 61.0818 12.4181 60.8601 11.863ZM95.2253 19.3455C96.4448 17.9598 98.5517 17.2392 100.658 17.738C102.764 18.2369 103.319 20.0106 103.429 21.6179V30.3757H99.7156V22.616C99.771 21.7845 99.6598 20.8421 98.7175 20.5095C97.609 20.1217 96.3343 20.6762 95.78 21.5076V30.3201H92.0662V22.283C92.0661 21.2854 91.7332 20.3989 90.4031 20.3435C89.1839 20.2882 88.1861 20.9531 88.1306 21.8953V30.3201H84.4177V17.9041C85.6372 17.7378 87.7988 17.6833 87.8542 19.2351C89.5725 17.1844 94.2274 16.907 95.2253 19.3455ZM36.9705 12.8054H50.6062V14.3015C50.4953 15.0775 49.7743 15.6873 48.6658 15.6873H44.6755V30.321H40.8503V15.6873H34.7537C34.5875 14.1908 35.0307 12.7501 36.9705 12.8054ZM113.129 24.2791C112.02 24.4453 109.803 24.5009 109.083 25.4431C107.254 28.4361 111.744 29.1569 113.074 27.1062L113.129 24.2791ZM54.8738 24.2234C53.3219 24.2788 51.4925 24.445 50.7166 25.5535C50.1623 26.6066 50.4954 28.0483 51.9919 28.2146C53.2666 28.3808 54.4303 27.8818 54.8738 27.0505V24.2234ZM114.681 12.4177C116.898 13.748 115.291 15.6875 113.24 15.7429C111.522 16.02 109.748 14.0243 108.14 15.1882L107.475 15.9089C104.704 14.2461 107.975 12.1398 110.081 12.6941C111.799 13.2484 113.628 14.4127 114.681 12.4177ZM67.1238 12.5281C68.7866 10.6991 72.2229 12.8606 70.3943 15.0222C68.7314 16.7959 65.4609 14.7452 67.1238 12.5281Z" fill="white"/>
<path d="M94.6719 36.4182C94.5056 34.6446 96.8884 33.203 97.9971 34.8655V34.2561H99.2168C99.2168 34.6446 99.272 38.8569 99.1611 39.134C98.7728 40.9628 95.0597 41.0736 94.8379 39.0784H96.0576C96.1686 39.8542 97.3874 39.9092 97.7754 39.4104C98.0523 39.0778 97.9971 38.4126 97.9971 38.0247C96.7777 39.6874 94.4506 38.3026 94.6719 36.4182ZM114.183 34.9211C115.07 33.7019 117.896 33.8682 118.007 35.6418H116.787C116.676 34.2561 113.019 35.5307 117.176 36.2512C118.007 36.4178 118.339 37.471 117.896 38.136C117.009 39.4661 113.905 39.2441 113.85 37.3596H115.069C115.125 37.4705 115.124 37.5818 115.18 37.6926C115.956 38.8566 118.782 37.3043 114.902 36.6946C114.071 36.528 113.739 35.5862 114.183 34.9211ZM101.545 36.8606C101.545 37.5257 101.656 37.9699 102.376 37.97C103.872 38.0808 103.208 35.1986 103.374 34.2561H104.648V38.801H103.318V38.1917C102.819 39.1335 101.212 39.189 100.603 38.4133C99.9929 37.6374 100.38 35.1985 100.27 34.2561H101.545V36.8606ZM108.75 35.5305C110.08 32.6485 114.293 34.4781 113.129 37.5266C111.798 40.3529 107.586 38.5789 108.75 35.5305ZM84.1396 33.4241C85.1928 31.706 88.9064 32.0943 88.7959 34.3665H87.4658C87.5762 33.0366 84.8608 33.0921 85.3594 34.4221C85.9691 34.921 86.8561 34.9213 87.6875 35.1985C88.7406 35.4756 89.4061 36.6949 88.9072 37.6926C87.9095 39.688 83.6411 39.2443 83.752 36.6946H85.082C85.082 36.9163 85.1379 37.083 85.1934 37.2493C85.8033 38.6347 89.0727 37.5258 87.1328 36.4172C86.5232 36.1956 85.8026 36.0852 85.1377 35.8635C84.14 35.5863 83.6408 34.3663 84.1396 33.4241ZM89.5166 36.4729C89.5722 33.0919 94.4495 33.3692 94.0615 36.7502H90.791C90.791 37.249 90.9021 37.5263 91.0684 37.6926C91.5118 38.1361 92.6757 38.0248 92.8975 37.3596H94.0059C93.3407 39.9093 89.2949 39.078 89.5166 36.4729ZM106.644 35.0872C106.921 34.4221 107.697 33.9785 108.362 34.1448V35.3088C106.201 34.81 106.755 37.5261 106.699 38.801H105.425V34.2561H106.644V35.0872ZM111.521 35.1985C110.302 34.589 109.582 36.0302 109.914 37.0833C110.025 37.859 110.856 38.2465 111.521 37.8586C112.353 37.3044 112.297 35.6973 111.521 35.1985ZM97.4434 37.637C98.6067 37.0269 97.9972 34.4783 96.501 35.1985C95.3924 35.8082 95.9468 38.3021 97.4434 37.637ZM92.5098 35.3088C91.9555 34.7547 90.7357 35.1982 90.791 36.0295H92.8428C92.7873 35.697 92.676 35.4751 92.5098 35.3088Z" fill="white"/>
</svg>
